<svg xmlns="http://www.w3.org/2000/svg" viewBox="0 0 32 32" width="32" height="32">
  <!-- Shield background -->
  <path d="M16 2 L6 6 L6 20 C6 24 16 30 16 30 C16 30 26 24 26 20 L26 6 Z" 
        fill="#122B40" 
        stroke="#2A68AF" 
        stroke-width="0.5"/>
  
  <!-- Book on top of shield -->
  <rect x="13" y="1" width="6" height="4" 
        fill="#2A68AF" 
        stroke="#122B40" 
        stroke-width="0.3"/>
  <line x1="14" y1="2.5" x2="18" y2="2.5" stroke="#122B40" stroke-width="0.2"/>
  <line x1="14" y1="3.5" x2="18" y2="3.5" stroke="#122B40" stroke-width="0.2"/>
  
  <!-- Scales of Justice -->
  <g transform="translate(16, 16)">
    <!-- Central stand -->
    <line x1="0" y1="-4" x2="0" y2="4" stroke="#FF492C" stroke-width="0.8"/>
    
    <!-- Horizontal beam -->
    <line x1="-3" y1="0" x2="3" y2="0" stroke="#FF492C" stroke-width="0.6"/>
    
    <!-- Left pan -->
    <ellipse cx="-3" cy="1" rx="1.5" ry="0.3" fill="#FF492C"/>
    <line x1="-4.5" y1="1" x2="-1.5" y2="1" stroke="#FF492C" stroke-width="0.3"/>
    <line x1="-3" y1="1.3" x2="-3" y2="0" stroke="#FF492C" stroke-width="0.3"/>
    
    <!-- Right pan -->
    <ellipse cx="3" cy="1" rx="1.5" ry="0.3" fill="#FF492C"/>
    <line x1="1.5" y1="1" x2="4.5" y2="1" stroke="#FF492C" stroke-width="0.3"/>
    <line x1="3" y1="1.3" x2="3" y2="0" stroke="#FF492C" stroke-width="0.3"/>
  </g>
</svg>